<svg version="1.0" xmlns="http://www.w3.org/2000/svg" width="318.667" height="298.667" viewBox="0 0 239 224"><path d="M90.7 15.4c-9.5 2.6-12.6 9.8-8.3 19.3 1.4 3.3 1.7 5.4 1.2 9.7-.8 6.1-2.4 7.9-10.7 11.5-3.9 1.6-5 2.9-9.2 10.5-4.5 8-8.6 21.5-8.7 28.2 0 1.2-1.5 4.7-3.4 7.8-3.6 6-4 8.1-5.2 27.6l-.6 10.6-3.9 2.2-3.9 2.3v-13.9c0-16.6 0-16.7-10-16.7-11.7 0-11-2.6-11 40.6v36.8l3 1.6c3.7 1.9 11.3 1.9 15 0l3-1.6v-33.8l7.7-5.5c4.3-3 9.5-5.9 11.6-6.6 2.4-.7 4.5-2.2 5.4-3.8 1.2-2.2 15.1-12.8 18.3-14 .4-.1 1 1.9 1.4 4.5 1.4 10.5 7.6 16.7 31.7 31.6 12 7.5 14.3 8.7 15.1 7.3.5-.9 1.6-1.6 2.3-1.6 2.3 0 9.3 6.8 13.5 13 5.1 7.6 10.1 11.8 14.7 12.5 5.1.8 28.4 6.6 30.3 7.6.9.4 2.1 2.8 2.8 5.3 1.6 6.3 4.1 7.4 10.1 4.8 2.5-1.2 6.3-2.3 8.3-2.7 4.5-.7 17.9-9.4 19.7-12.8.7-1.4 1-3.3.7-4.3-.5-1.7-1.8-1.9-13.4-1.9-15.5-.1-15.2.1-40.1-16.9-12.2-8.3-17.2-12.3-18-14.5-.7-1.6-2.4-3.9-3.7-5.2-1.3-1.2-3.5-4.7-4.9-7.7-1.4-3-5.1-8.4-8.4-12.1-4.7-5.2-7.5-7.4-13.9-10.5-8.7-4.3-9.2-5-9.2-14 0-3.6.4-4.4 3-5.9l3-1.8v7.9c0 9.4.7 10.4 8.3 11 9.3.7 9.1 1.1 9.5-26.3.3-17.3.1-24-.8-25-3.2-3.9-13.8-3.5-16 .5-.5 1-1 6.3-1 11.8v9.9l-3.9 2.6c-3.6 2.4-4 2.5-4.5.9-.7-2.7-1.5-8-2.5-17.4-1.1-9.9-3.3-14.8-8.5-19.6-2.2-2-3.6-4.2-3.6-5.6 0-1.4-.3-3.1-.6-4-.5-1.2 0-1.6 1.7-1.6 3.5 0 4.6-1.1 5.4-5 .4-1.9 1.2-3.8 1.7-4.1.5-.4.5-3.2-.3-7.3-.6-3.7-.9-8.1-.5-9.7.5-2.8.3-3.2-3.7-4.9-6.1-2.7-10.5-3.1-16-1.6zm13.5 2.1l4.5 1.6.6 9.2c.4 5.5.2 9.3-.3 9.5-.6.2-1 2.1-1 4.2 0 3.7-.2 3.9-3.6 4.6l-3.6.7.7 5.1c.6 4.2 1.4 5.6 4.1 7.9 5.1 4.3 7.3 9.4 8.4 19.9.5 5.1 1.6 12.9 2.4 17.3.8 4.4 1.7 10.5 2.1 13.5 1.2 11 .9 10.5 9.8 14.8 6.7 3.1 9.4 5.1 14 10.4 3.1 3.6 6.8 8.9 8.1 11.9 1.3 3 3.5 6.5 4.9 7.7 1.4 1.3 3.1 3.7 3.7 5.2.8 2 5.8 6.1 16.3 13.3 26 17.8 26.4 17.9 37.8 18.5 5.4.3 9.6.9 9.3 1.3-.8 1.3-6.6 1.1-17.8-.6-8.5-1.3-11.3-2.2-19.5-6.6-12.5-6.7-26.4-16.2-29.8-20.5-6.5-8.1-9.6-11.4-10.1-11-.3.3 1 2.3 2.9 4.4 1.9 2.2 4.6 5.5 6.1 7.4 3.2 4.2 17 13.7 30.1 20.8 8.2 4.4 11.2 5.4 19 6.6 11.1 1.7 18.1 1.8 20.9.3 2.2-1.2 3.8.1 3.8 3.3 0 2.1-11.2 9.5-16.5 10.9-2.2.6-5.3 1.5-7 2.1-1.6.6-4.3 1.1-6 1.2-2.7.1-3.1-.3-4.5-4.7-.9-2.7-2.2-5.2-3-5.7-1.9-1-24.3-6.7-29.4-7.4-5.2-.7-7.9-2.7-13.4-9.9-10.8-14.1-16.9-18.9-19.5-15.3-1.1 1.5-2.6.8-14.2-6.4-22.4-14-26.8-18-29.9-27.4-1.8-5.1-1.6-8.1 1-15.1 1.4-3.8 1.4-4.6-1-12-1.4-4.3-4.1-10.2-6.2-13.1-4.5-6.7-4.2-10.1 1.7-16.8 2.2-2.5 3.6-4.6 3.1-4.6-1.8 0-8.1 8.1-8.7 11.1-.4 1.6-2.4 5.3-4.6 8.1-2.5 3.4-3.9 6.3-3.9 8.2 0 1.6-2.9 9.2-6.5 16.8-3.6 7.6-6.5 14-6.5 14.2 0 .1 1.7.8 3.8 1.4 6.3 1.9 7.4 7.4 2.1 10.3-1.7.9-2.3.7-3.6-1-.9-1.3-2.5-2.1-4.4-2.1H48v-9.8c.1-15.1 1.4-22.7 4.8-28.3 1.7-2.6 3.4-7 3.7-9.6 1.2-9.1 4.4-19 8.6-26.7 3.7-6.8 4.7-8 8.7-9.7 8.4-3.6 9.8-5.2 11.2-12.2 1.1-5.9 1-6.6-.9-9.8-2.3-3.8-2.7-9.5-1-13.3 2.3-5 12.5-7 21.1-4.1zm36.7 53.2l2.4 1.6-2.3 1.9c-3.8 3.1-13 1.9-13-1.7 0-3.5 8.8-4.7 12.9-1.8zm-5.9 6.7c1.4 0 3.8-.3 5.4-.7l2.8-.8-.7 21.3c-.4 11.7-1 21.7-1.4 22.1-1.3 1.4-7.5 1.9-10.3.8-2.8-1-2.8-1.1-2.8-10.6 0-5.2-.3-9.5-.6-9.5s-2.1 1.2-4 2.6c-3.8 3-3.9 3-4.7-.6-.5-2.2.1-3 4.4-5.8L128 93v-8.6c0-8.4 0-8.5 2.3-7.8 1.2.5 3.3.8 4.7.8zM77.5 96.2c2.9 4.4 8.2 17.6 7.3 18.3-.2.1-6.1 4.1-13.2 8.9-11.4 7.5-16.6 10.1-16.6 8 0-.3 2.7-6.2 5.9-12.9 3.2-6.8 6.2-14.3 6.6-16.7.6-3.5 4.7-10.8 6.1-10.8.2 0 1.9 2.4 3.9 5.2zm-41.9 20.9c2.2 1.8 1.7 2.9-2.3 4.5-5.7 2.4-14.3.5-14.3-3.1 0-3.2 13.1-4.3 16.6-1.4zm48.5 3.5c-1.4 4.1-2.7 5.4-11 11.2-5.9 4.1-9.6 6.1-9.9 5.4-.2-.7-1.1-2-2-2.8-1.3-1.4-1.4-1.7-.1-2.5.8-.4 6.4-4.2 12.4-8.3 6.1-4.1 11.3-7.5 11.6-7.5.4-.1-.1 2-1 4.5zM28 124c2.1 0 5-.4 6.4-1l2.6-1v21.4c0 11.7-.3 27.4-.7 34.9-.6 13-.7 13.6-3 14.6-3.1 1.4-7.1 1.4-11.2 0l-3.1-1.1V122l2.6 1c1.4.6 4.3 1 6.4 1zm25.7 20c.2.9-1.9 3-4.9 5-2.9 1.9-6.5 4.3-8 5.3l-2.8 1.9v-4.6c0-4.2.3-4.8 3.8-7.1 4.3-2.8 11.5-3.1 11.9-.5zm176.7 49.7c1.1 2.7-.8 3.4-2.1.7-.9-1.9-.8-2.4.2-2.4.7 0 1.6.8 1.9 1.7z"/></svg>