<svg width="216" height="201" viewBox="0 0 216 201" fill="none" xmlns="http://www.w3.org/2000/svg">
<path d="M74.6999 1.39999C65.1999 4 62.0999 11.2 66.3999 20.7C67.7999 24 68.0999 26.1 67.5999 30.4C66.7999 36.5 65.1999 38.3 56.8999 41.9C52.9999 43.5 51.8999 44.8 47.6999 52.4C43.1999 60.4 39.0999 73.9 38.9999 80.6C38.9999 81.8 37.4999 85.3 35.5999 88.4C31.9999 94.4 31.5999 96.5 30.3999 116L29.7999 126.6L25.8999 128.8L21.9999 131.1V117.2C21.9999 100.6 21.9999 100.5 11.9999 100.5C0.299938 100.5 0.999938 97.9 0.999938 141.1V177.9L3.99994 179.5C7.69994 181.4 15.2999 181.4 18.9999 179.5L21.9999 177.9V161V144.1L29.6999 138.6C33.9999 135.6 39.1999 132.7 41.2999 132C43.6999 131.3 45.7999 129.8 46.6999 128.2C47.8999 126 61.7999 115.4 64.9999 114.2C65.3999 114.1 65.9999 116.1 66.3999 118.7C67.7999 129.2 73.9999 135.4 98.0999 150.3C110.1 157.8 112.4 159 113.2 157.6C113.7 156.7 114.8 156 115.5 156C117.8 156 124.8 162.8 129 169C134.1 176.6 139.1 180.8 143.7 181.5C148.8 182.3 172.1 188.1 174 189.1C174.9 189.5 176.1 191.9 176.8 194.4C178.4 200.7 180.9 201.8 186.9 199.2C189.4 198 193.2 196.9 195.2 196.5C199.7 195.8 213.1 187.1 214.9 183.7C215.6 182.3 215.9 180.4 215.6 179.4C215.1 177.7 213.8 177.5 202.2 177.5C186.7 177.4 187 177.6 162.1 160.6C149.9 152.3 144.9 148.3 144.1 146.1C143.4 144.5 141.7 142.2 140.4 140.9C139.1 139.7 136.9 136.2 135.5 133.2C134.1 130.2 130.4 124.8 127.1 121.1C122.4 115.9 119.6 113.7 113.2 110.6C104.5 106.3 104 105.6 104 96.6C104 93 104.4 92.2 107 90.7L110 88.9V96.8C110 106.2 110.7 107.2 118.3 107.8C127.6 108.5 127.4 108.9 127.8 81.5C128.1 64.2 127.9 57.5 127 56.5C123.8 52.6 113.2 53 111 57C110.5 58 110 63.3 110 68.8V78.7L106.1 81.3C102.5 83.7 102.1 83.8 101.6 82.2C100.9 79.5 100.1 74.2 99.0999 64.8C97.9999 54.9 95.7999 50 90.5999 45.2C88.3999 43.2 86.9999 41 86.9999 39.6C86.9999 38.2 86.6999 36.5 86.3999 35.6C85.8999 34.4 86.3999 34 88.0999 34C91.5999 34 92.6999 32.9 93.4999 29C93.8999 27.1 94.6999 25.2 95.1999 24.9C95.6999 24.5 95.6999 21.7 94.8999 17.6C94.2999 13.9 93.9999 9.5 94.3999 7.89999C94.8999 5.10001 94.6999 4.7 90.6999 3C84.5999 0.300003 80.1999 -0.100006 74.6999 1.39999ZM88.1999 3.5L92.6999 5.10001L93.2999 14.3C93.6999 19.8 93.4999 23.6 92.9999 23.8C92.3999 24 91.9999 25.9 91.9999 28C91.9999 31.7 91.7999 31.9 88.3999 32.6L84.7999 33.3L85.4999 38.4C86.0999 42.6 86.8999 44 89.5999 46.3C94.6999 50.6 96.8999 55.7 97.9999 66.2C98.4999 71.3 99.5999 79.1 100.4 83.5C101.2 87.9 102.1 94 102.5 97C103.7 108 103.4 107.5 112.3 111.8C119 114.9 121.7 116.9 126.3 122.2C129.4 125.8 133.1 131.1 134.4 134.1C135.7 137.1 137.9 140.6 139.3 141.8C140.7 143.1 142.4 145.5 143 147C143.8 149 148.8 153.1 159.3 160.3C185.3 178.1 185.7 178.2 197.1 178.8C202.5 179.1 206.7 179.7 206.4 180.1C205.6 181.4 199.8 181.2 188.6 179.5C180.1 178.2 177.3 177.3 169.1 172.9C156.6 166.2 142.7 156.7 139.3 152.4C132.8 144.3 129.7 141 129.2 141.4C128.9 141.7 130.2 143.7 132.1 145.8C134 148 136.7 151.3 138.2 153.2C141.4 157.4 155.2 166.9 168.3 174C176.5 178.4 179.5 179.4 187.3 180.6C198.4 182.3 205.4 182.4 208.2 180.9C210.4 179.7 212 181 212 184.2C212 186.3 200.8 193.7 195.5 195.1C193.3 195.7 190.2 196.6 188.5 197.2C186.9 197.8 184.2 198.3 182.5 198.4C179.8 198.5 179.4 198.1 178 193.7C177.1 191 175.8 188.5 175 188C173.1 187 150.7 181.3 145.6 180.6C140.4 179.9 137.7 177.9 132.2 170.7C121.4 156.6 115.3 151.8 112.7 155.4C111.6 156.9 110.1 156.2 98.4999 149C76.0999 135 71.6999 131 68.5999 121.6C66.7999 116.5 66.9999 113.5 69.5999 106.5C70.9999 102.7 70.9999 101.9 68.5999 94.5C67.1999 90.2 64.4999 84.3 62.3999 81.4C57.8999 74.7 58.1999 71.3 64.0999 64.6C66.2999 62.1 67.6999 60 67.1999 60C65.3999 60 59.0999 68.1 58.4999 71.1C58.0999 72.7 56.0999 76.4 53.8999 79.2C51.3999 82.6 49.9999 85.5 49.9999 87.4C49.9999 89 47.0999 96.6 43.4999 104.2C39.8999 111.8 36.9999 118.2 36.9999 118.4C36.9999 118.5 38.6999 119.2 40.7999 119.8C47.0999 121.7 48.1999 127.2 42.8999 130.1C41.1999 131 40.5999 130.8 39.2999 129.1C38.3999 127.8 36.7999 127 34.8999 127H31.9999V117.2C32.0999 102.1 33.3999 94.5 36.7999 88.9C38.4999 86.3 40.1999 81.9 40.4999 79.3C41.6999 70.2 44.8999 60.3 49.0999 52.6C52.7999 45.8 53.7999 44.6 57.7999 42.9C66.1999 39.3 67.5999 37.7 68.9999 30.7C70.0999 24.8 69.9999 24.1 68.0999 20.9C65.7999 17.1 65.3999 11.4 67.0999 7.60001C69.3999 2.60001 79.5999 0.600006 88.1999 3.5ZM124.9 56.7L127.3 58.3L125 60.2C121.2 63.3 112 62.1 112 58.5C112 55 120.8 53.8 124.9 56.7ZM119 63.4C120.4 63.4 122.8 63.1 124.4 62.7L127.2 61.9L126.5 83.2C126.1 94.9 125.5 104.9 125.1 105.3C123.8 106.7 117.6 107.2 114.8 106.1C112 105.1 112 105 112 95.5C112 90.3 111.7 86 111.4 86C111.1 86 109.3 87.2 107.4 88.6C103.6 91.6 103.5 91.6 102.7 88C102.2 85.8 102.8 85 107.1 82.2L112 79V70.4C112 62 112 61.9 114.3 62.6C115.5 63.1 117.6 63.4 119 63.4ZM61.4999 82.2C64.3999 86.6 69.6999 99.8 68.7999 100.5C68.5999 100.6 62.6999 104.6 55.5999 109.4C44.1999 116.9 38.9999 119.5 38.9999 117.4C38.9999 117.1 41.6999 111.2 44.8999 104.5C48.0999 97.7 51.0999 90.2 51.4999 87.8C52.0999 84.3 56.1999 77 57.5999 77C57.7999 77 59.4999 79.4 61.4999 82.2ZM19.5999 103.1C21.7999 104.9 21.2999 106 17.2999 107.6C11.5999 110 2.99994 108.1 2.99994 104.5C2.99994 101.3 16.0999 100.2 19.5999 103.1ZM68.0999 106.6C66.6999 110.7 65.3999 112 57.0999 117.8C51.1999 121.9 47.4999 123.9 47.1999 123.2C46.9999 122.5 46.0999 121.2 45.1999 120.4C43.8999 119 43.7999 118.7 45.0999 117.9C45.8999 117.5 51.4999 113.7 57.4999 109.6C63.5999 105.5 68.7999 102.1 69.0999 102.1C69.4999 102 68.9999 104.1 68.0999 106.6ZM11.9999 110C14.0999 110 16.9999 109.6 18.3999 109L20.9999 108V129.4C20.9999 141.1 20.6999 156.8 20.2999 164.3C19.6999 177.3 19.5999 177.9 17.2999 178.9C14.1999 180.3 10.1999 180.3 6.09994 178.9L2.99994 177.8V142.9V108L5.59994 109C6.99994 109.6 9.89994 110 11.9999 110ZM37.6999 130C37.8999 130.9 35.7999 133 32.7999 135C29.8999 136.9 26.2999 139.3 24.7999 140.3L21.9999 142.2V137.6C21.9999 133.4 22.2999 132.8 25.7999 130.5C30.0999 127.7 37.2999 127.4 37.6999 130ZM214.4 179.7C215.5 182.4 213.6 183.1 212.3 180.4C211.4 178.5 211.5 178 212.5 178C213.2 178 214.1 178.8 214.4 179.7Z" fill="black"/>
</svg>
