<svg width="246" height="175" viewBox="0 0 246 175" fill="none" xmlns="http://www.w3.org/2000/svg">
<path d="M212.315 4.87613C202.315 9.47613 201.515 9.67613 201.015 7.87613C200.615 6.77613 199.215 5.17612 197.715 4.17612C192.215 0.576117 165.915 3.07613 157.815 8.07613C156.115 9.17613 153.315 11.6761 151.615 13.5761C149.915 15.4761 145.215 18.7761 141.215 20.8761C134.415 24.4761 133.315 24.7761 122.515 25.4761L111.015 26.0761L97.8153 33.0761C87.9153 38.2761 84.4153 40.6761 83.9153 42.3761C83.6153 43.8761 81.4153 45.5761 77.7153 47.4761C73.0153 49.8761 70.3153 50.4761 62.3153 50.9761C54.4153 51.3761 52.0153 51.9761 49.6153 53.7761C47.7153 55.1761 45.1153 55.9761 42.6153 55.9761C37.4153 55.9761 33.7153 57.4761 30.0153 60.8761C28.2153 62.5761 25.4153 63.9761 23.1153 64.2761C21.0153 64.6761 18.2153 65.7761 17.0153 66.9761C15.7153 68.1761 13.5153 68.9761 11.3153 68.9761C0.515303 68.9761 -2.7847 74.6761 2.4153 84.4761C3.4153 86.3761 4.0153 89.9761 4.0153 94.2761C4.0153 100.976 4.1153 101.176 8.2153 105.076C12.7153 109.176 16.6153 110.076 21.9153 107.976C24.1153 107.176 24.5153 106.376 24.5153 103.076C24.5153 99.9761 24.1153 98.9761 22.5153 98.4761C20.4153 97.7761 19.9153 95.3761 21.5153 92.9761C22.3153 91.6761 22.5153 91.7761 22.5153 93.3761C22.5153 94.4761 23.6153 96.7761 25.1153 98.6761C27.3153 101.576 28.1153 101.976 32.5153 101.976C37.0153 101.976 37.6153 101.676 39.0153 98.9761C41.2153 94.7761 40.9153 93.2761 37.5153 90.7761C34.9153 88.8761 34.5153 87.9761 34.5153 83.8761C34.5153 78.0761 34.6153 77.9761 52.5153 77.2761C59.9153 76.9761 66.4153 76.3761 66.8153 75.9761C67.3153 75.5761 69.3153 75.6761 71.3153 76.1761C73.3153 76.6761 77.7153 77.2761 81.2153 77.3761C86.5153 77.5761 87.8153 77.9761 89.1153 79.7761C89.9153 80.9761 91.2153 81.9761 91.9153 81.9761C93.6153 81.9761 114.115 71.8761 122.515 66.8761C128.415 63.3761 130.315 62.7761 137.815 62.1761L146.415 61.3761L145.815 66.9761C145.115 74.1761 146.915 90.4761 150.115 105.476C153.515 121.376 153.515 120.676 149.815 123.076L146.515 125.176V111.576C146.515 98.5761 146.415 97.9761 144.315 96.5761C138.915 93.1761 128.615 93.9761 126.515 97.9761C125.915 99.1761 125.515 113.476 125.515 136.376V172.776L130.015 174.476C135.015 176.476 140.215 176.076 144.115 173.476C146.515 171.976 146.515 171.776 146.515 155.176L146.615 138.476L152.515 134.176C157.015 130.876 158.915 130.076 160.815 130.476C165.315 131.676 174.115 125.176 175.215 119.976C175.915 116.676 192.215 104.976 196.115 104.976C197.815 104.976 199.615 103.876 201.415 101.876C205.515 96.9761 209.615 92.9761 210.615 92.9761C211.015 92.9761 211.515 96.6761 211.715 101.176L212.015 109.476L216.115 110.876C220.315 112.376 223.815 111.976 226.715 109.776C228.215 108.676 228.415 105.576 228.715 84.6761L229.015 60.7761L226.615 58.8761C223.715 56.5761 216.815 56.3761 213.715 58.5761C211.715 59.9761 211.515 60.8761 211.515 70.8761V81.6761L207.515 84.3761C203.415 87.0761 201.815 87.4761 199.115 86.3761C197.715 85.8761 197.515 83.5761 197.515 70.9761C197.515 62.8761 197.015 54.9761 196.515 53.2761C195.715 51.0761 195.815 47.9761 197.015 41.4761C197.815 36.6761 198.515 32.5761 198.515 32.3761C198.515 32.1761 199.115 31.9761 199.815 31.9761C200.615 31.9761 201.915 33.7761 202.815 35.9761L204.315 39.9761H209.915C213.415 39.9761 215.515 40.3761 215.515 41.0761C215.515 41.7761 216.515 41.9761 218.315 41.5761C231.515 38.6761 235.315 37.9761 237.315 37.9761C238.615 37.9761 241.015 36.5761 242.715 34.8761L245.815 31.8761L245.215 22.9761C244.615 13.9761 243.115 9.47612 239.115 5.17612C233.015 -1.62388 226.715 -1.72387 212.315 4.87613ZM235.515 4.17612C240.315 7.67612 242.715 13.2761 243.315 22.5761C243.715 30.4761 243.615 31.1761 241.515 33.4761C240.215 34.8761 238.115 35.9761 236.915 35.9761C235.615 35.9761 230.715 36.8761 225.915 37.9761C219.315 39.5761 216.915 39.7761 215.915 38.8761C215.115 38.1761 213.015 37.9761 211.115 38.2761C207.115 38.8761 205.315 37.7761 203.515 33.1761C202.315 30.0761 200.315 29.1761 197.815 30.7761C196.615 31.4761 194.115 45.6761 194.415 49.9761C194.515 51.3761 194.915 60.0761 195.315 69.3761L196.015 86.3761L200.515 88.9761C205.515 91.9761 205.715 93.3761 202.215 98.4761C199.915 101.676 198.515 102.976 197.115 102.976C196.515 102.976 197.115 102.076 198.415 100.876C199.715 99.6761 200.515 97.8761 200.315 96.6761C200.015 94.7761 199.315 94.4761 195.715 94.4761C191.715 94.4761 191.515 94.3761 191.515 91.3761C191.515 89.7761 189.715 83.6761 187.415 77.9761C185.215 72.2761 182.615 64.2761 181.715 60.0761C180.915 55.8761 179.815 52.0761 179.415 51.5761C179.015 51.1761 176.715 51.4761 174.215 52.4761C170.915 53.6761 169.215 55.1761 167.415 58.2761C166.115 60.5761 164.015 63.5761 162.715 64.8761C160.615 66.9761 160.415 67.7761 161.115 70.8761C162.215 75.6761 162.215 91.3761 161.215 101.976L160.415 110.476L166.715 113.176C173.715 116.076 174.915 118.176 172.015 122.576C170.215 125.276 164.815 128.976 162.615 128.976C161.515 128.976 161.515 128.576 162.815 127.176C163.815 126.176 164.515 123.876 164.515 122.076C164.515 118.776 164.515 118.776 160.015 119.176C154.615 119.576 154.615 119.376 151.615 103.976C146.615 77.7761 146.415 69.5761 150.515 57.9761C152.115 53.2761 153.515 47.5761 153.515 45.2761C153.515 43.0761 154.415 38.7761 155.415 35.7761C158.915 25.8761 161.915 14.9761 161.215 14.3761C160.415 13.5761 158.915 17.4761 156.515 26.4761C155.515 30.2761 154.215 34.7761 153.615 36.4761C153.115 38.0761 152.215 42.3761 151.715 45.9761C151.215 49.5761 150.115 54.0761 149.215 56.0761L147.715 59.6761L138.515 60.2761C129.815 60.9761 128.615 61.2761 121.315 65.5761C111.515 71.1761 93.6153 79.9761 91.9153 79.9761C91.2153 79.9761 90.3153 79.0761 90.0153 77.9761C89.7153 76.8761 89.1153 75.9761 88.7153 75.9761C80.9153 75.7761 72.4153 74.9761 70.4153 74.1761C68.7153 73.4761 67.3153 73.4761 66.1153 74.1761C65.1153 74.7761 59.9153 75.1761 54.6153 75.0761C49.3153 75.0761 42.3153 75.5761 39.0153 76.2761L33.0153 77.5761L32.7153 83.6761C32.4153 89.5761 32.5153 89.8761 35.5153 91.5761C38.7153 93.4761 39.1153 94.9761 37.5153 98.0761C36.7153 99.4761 35.4153 99.9761 32.1153 99.9761C27.0153 99.9761 24.8153 97.5761 23.7153 90.7761C22.9153 86.3761 21.0153 84.6761 20.2153 87.6761C19.9153 88.6761 19.4153 91.5761 19.0153 94.1761C18.5153 98.2761 18.6153 98.8761 20.4153 99.4761C22.9153 100.276 24.1153 103.576 22.5153 105.476C21.7153 106.376 19.5153 106.976 16.9153 106.976C13.4153 106.976 12.0153 106.376 9.0153 103.576C5.5153 100.176 5.4153 99.9761 5.6153 93.2761C5.7153 87.9761 5.3153 85.5761 3.6153 82.4761C2.5153 80.3761 1.5153 77.5761 1.5153 76.2761C1.5153 73.1761 5.2153 70.9761 10.5153 70.9761C18.4153 70.9761 25.2153 68.3761 30.0153 63.4761C32.3153 61.0761 35.5153 58.7761 37.0153 58.3761C38.5153 57.9761 44.6153 57.9761 50.6153 58.3761L61.4153 58.9761L66.8153 55.5761C69.8153 53.6761 75.2153 50.6761 78.8153 48.8761C83.4153 46.5761 85.5153 44.9761 85.7153 43.5761C85.9153 42.0761 89.4153 39.6761 98.7153 34.6761L111.515 27.8761L122.715 27.2761C133.015 26.7761 134.615 26.3761 140.815 23.2761C144.615 21.3761 150.515 17.2761 153.915 14.0761C159.415 8.97613 161.015 8.07613 167.615 6.37613C172.415 5.17613 178.615 4.47612 185.315 4.47612C195.315 4.47612 195.715 4.57612 198.015 7.17612C199.215 8.67612 200.515 10.4761 200.715 11.1761C201.115 12.0761 203.615 11.2761 210.115 8.07613C225.615 0.276126 229.515 -0.323883 235.515 4.17612ZM65.0153 52.8761C66.8153 53.5761 66.7153 53.7761 63.8153 55.2761C58.8153 57.8761 47.2153 57.0761 51.5153 54.4761C52.4153 53.9761 59.5153 52.4761 62.5153 52.1761C62.8153 52.1761 63.9153 52.4761 65.0153 52.8761ZM178.515 53.3761C178.515 56.5761 182.315 69.9761 185.515 77.8761C188.015 84.1761 189.515 89.6761 189.515 92.2761V96.5761L178.715 103.776C169.415 109.976 167.415 110.976 165.015 110.376L162.215 109.676L162.915 102.576C164.615 83.2761 164.715 77.4761 163.215 72.7761C161.815 68.3761 161.815 67.9761 163.715 66.2761C164.815 65.2761 166.915 62.4761 168.315 60.0761C169.815 57.5761 172.115 55.1761 173.915 54.3761C177.215 52.9761 178.515 52.6761 178.515 53.3761ZM225.315 59.8761C227.615 61.2761 226.215 64.2761 223.015 65.1761C219.515 66.0761 213.515 64.4761 213.515 62.5761C213.515 60.2761 215.915 58.9761 220.015 58.9761C222.215 58.9761 224.615 59.3761 225.315 59.8761ZM227.015 86.9761C226.315 109.376 226.115 109.976 220.215 109.976C214.215 109.976 213.515 108.876 213.515 98.4761C213.515 89.0761 212.915 87.5761 210.515 90.4761C208.815 92.4761 207.215 92.3761 205.815 90.1761C204.915 88.5761 205.215 87.9761 208.515 85.9761C212.915 83.2761 213.515 81.8761 213.515 72.9761V66.4761H220.615H227.715L227.015 86.9761ZM198.315 97.7761C198.115 98.5761 193.115 102.876 187.215 107.176C176.815 114.876 176.215 115.076 173.415 113.876C171.815 113.276 170.615 112.276 170.715 111.876C170.915 111.376 176.315 107.376 182.815 103.076C190.915 97.7761 195.315 95.3761 196.615 95.6761C197.715 95.9761 198.515 96.8761 198.315 97.7761ZM141.415 97.0761C147.315 99.1761 144.215 102.976 136.615 102.976C131.615 102.976 127.215 101.376 127.715 99.6761C128.815 96.4761 135.715 95.0761 141.415 97.0761ZM140.615 104.276L144.515 103.276V137.476V171.776L141.415 172.876C137.415 174.276 134.615 174.276 130.615 172.876L127.515 171.776V137.476V103.276L132.115 104.276C135.315 105.076 137.815 105.076 140.615 104.276ZM162.915 121.576C163.815 123.776 162.715 124.876 154.015 130.976L146.515 136.076V131.776C146.515 127.776 146.815 127.276 151.215 124.476C155.215 121.976 158.015 120.776 161.615 120.076C162.015 120.076 162.615 120.676 162.915 121.576Z" fill="black"/>
</svg>
