<svg version="1.0" xmlns="http://www.w3.org/2000/svg" width="421.333" height="306.667" viewBox="0 0 316 230"><path d="M238.8 48.9c-10 4.6-10.8 4.8-11.3 3-.4-1.1-1.8-2.7-3.3-3.7-5.5-3.6-31.8-1.1-39.9 3.9-1.7 1.1-4.5 3.6-6.2 5.5-1.7 1.9-6.4 5.2-10.4 7.3-6.8 3.6-7.9 3.9-18.7 4.6l-11.5.6-13.2 7c-9.9 5.2-13.4 7.6-13.9 9.3-.3 1.5-2.5 3.2-6.2 5.1-4.7 2.4-7.4 3-15.4 3.5-7.9.4-10.3 1-12.7 2.8-1.9 1.4-4.5 2.2-7 2.2-5.2 0-8.9 1.5-12.6 4.9-1.8 1.7-4.6 3.1-6.9 3.4-2.1.4-4.9 1.5-6.1 2.7-1.3 1.2-3.5 2-5.7 2-10.8 0-14.1 5.7-8.9 15.5 1 1.9 1.6 5.5 1.6 9.8 0 6.7.1 6.9 4.2 10.8 4.5 4.1 8.4 5 13.7 2.9 2.2-.8 2.6-1.6 2.6-4.9 0-3.1-.4-4.1-2-4.6-2.1-.7-2.6-3.1-1-5.5.8-1.3 1-1.2 1 .4 0 1.1 1.1 3.4 2.6 5.3 2.2 2.9 3 3.3 7.4 3.3 4.5 0 5.1-.3 6.5-3 2.2-4.2 1.9-5.7-1.5-8.2-2.6-1.9-3-2.8-3-6.9 0-5.8.1-5.9 18-6.6 7.4-.3 13.9-.9 14.3-1.3.5-.4 2.5-.3 4.5.2s6.4 1.1 9.9 1.2c5.3.2 6.6.6 7.9 2.4.8 1.2 2.1 2.2 2.8 2.2 1.7 0 22.2-10.1 30.6-15.1 5.9-3.5 7.8-4.1 15.3-4.7l8.6-.8-.6 5.6c-.7 7.2 1.1 23.5 4.3 38.5 3.4 15.9 3.4 15.2-.3 17.6l-3.3 2.1v-13.6c0-13-.1-13.6-2.2-15-5.4-3.4-15.7-2.6-17.8 1.4-.6 1.2-1 15.5-1 38.4v36.4l4.5 1.7c5 2 10.2 1.6 14.1-1 2.4-1.5 2.4-1.7 2.4-18.3l.1-16.7 5.9-4.3c4.5-3.3 6.4-4.1 8.3-3.7 4.5 1.2 13.3-5.3 14.4-10.5.7-3.3 17-15 20.9-15 1.7 0 3.5-1.1 5.3-3.1 4.1-4.9 8.2-8.9 9.2-8.9.4 0 .9 3.7 1.1 8.2l.3 8.3 4.1 1.4c4.2 1.5 7.7 1.1 10.6-1.1 1.5-1.1 1.7-4.2 2-25.1l.3-23.9-2.4-1.9c-2.9-2.3-9.8-2.5-12.9-.3-2 1.4-2.2 2.3-2.2 12.3v10.8l-4 2.7c-4.1 2.7-5.7 3.1-8.4 2-1.4-.5-1.6-2.8-1.6-15.4 0-8.1-.5-16-1-17.7-.8-2.2-.7-5.3.5-11.8.8-4.8 1.5-8.9 1.5-9.1 0-.2.6-.4 1.3-.4.8 0 2.1 1.8 3 4l1.5 4h5.6c3.5 0 5.6.4 5.6 1.1 0 .7 1 .9 2.8.5 13.2-2.9 17-3.6 19-3.6 1.3 0 3.7-1.4 5.4-3.1l3.1-3-.6-8.9c-.6-9-2.1-13.5-6.1-17.8-6.1-6.8-12.4-6.9-26.8-.3zm23.2-.7c4.8 3.5 7.2 9.1 7.8 18.4.4 7.9.3 8.6-1.8 10.9-1.3 1.4-3.4 2.5-4.6 2.5-1.3 0-6.2.9-11 2-6.6 1.6-9 1.8-10 .9-.8-.7-2.9-.9-4.8-.6-4 .6-5.8-.5-7.6-5.1-1.2-3.1-3.2-4-5.7-2.4-1.2.7-3.7 14.9-3.4 19.2.1 1.4.5 10.1.9 19.4l.7 17 4.5 2.6c5 3 5.2 4.4 1.7 9.5-2.3 3.2-3.7 4.5-5.1 4.5-.6 0 0-.9 1.3-2.1 1.3-1.2 2.1-3 1.9-4.2-.3-1.9-1-2.2-4.6-2.2-4 0-4.2-.1-4.2-3.1 0-1.6-1.8-7.7-4.1-13.4-2.2-5.7-4.8-13.7-5.7-17.9-.8-4.2-1.9-8-2.3-8.5-.4-.4-2.7-.1-5.2.9-3.3 1.2-5 2.7-6.8 5.8-1.3 2.3-3.4 5.3-4.7 6.6-2.1 2.1-2.3 2.9-1.6 6 1.1 4.8 1.1 20.5.1 31.1l-.8 8.5 6.3 2.7c7 2.9 8.2 5 5.3 9.4-1.8 2.7-7.2 6.4-9.4 6.4-1.1 0-1.1-.4.2-1.8 1-1 1.7-3.3 1.7-5.1 0-3.3 0-3.3-4.5-2.9-5.4.4-5.4.2-8.4-15.2-5-26.2-5.2-34.4-1.1-46 1.6-4.7 3-10.4 3-12.7 0-2.2.9-6.5 1.9-9.5 3.5-9.9 6.5-20.8 5.8-21.4-.8-.8-2.3 3.1-4.7 12.1-1 3.8-2.3 8.3-2.9 10-.5 1.6-1.4 5.9-1.9 9.5-.5 3.6-1.6 8.1-2.5 10.1l-1.5 3.6-9.2.6c-8.7.7-9.9 1-17.2 5.3-9.8 5.6-27.7 14.4-29.4 14.4-.7 0-1.6-.9-1.9-2-.3-1.1-.9-2-1.3-2-7.8-.2-16.3-1-18.3-1.8-1.7-.7-3.1-.7-4.3 0-1 .6-6.2 1-11.5.9-5.3 0-12.3.5-15.6 1.2l-6 1.3-.3 6.1c-.3 5.9-.2 6.2 2.8 7.9 3.2 1.9 3.6 3.4 2 6.5-.8 1.4-2.1 1.9-5.4 1.9-5.1 0-7.3-2.4-8.4-9.2-.8-4.4-2.7-6.1-3.5-3.1-.3 1-.8 3.9-1.2 6.5-.5 4.1-.4 4.7 1.4 5.3 2.5.8 3.7 4.1 2.1 6-.8.9-3 1.5-5.6 1.5-3.5 0-4.9-.6-7.9-3.4-3.5-3.4-3.6-3.6-3.4-10.3.1-5.3-.3-7.7-2-10.8-1.1-2.1-2.1-4.9-2.1-6.2 0-3.1 3.7-5.3 9-5.3 7.9 0 14.7-2.6 19.5-7.5 2.3-2.4 5.5-4.7 7-5.1 1.5-.4 7.6-.4 13.6 0l10.8.6 5.4-3.4c3-1.9 8.4-4.9 12-6.7 4.6-2.3 6.7-3.9 6.9-5.3.2-1.5 3.7-3.9 13-8.9l12.8-6.8 11.2-.6c10.3-.5 11.9-.9 18.1-4 3.8-1.9 9.7-6 13.1-9.2 5.5-5.1 7.1-6 13.7-7.7 4.8-1.2 11-1.9 17.7-1.9 10 0 10.4.1 12.7 2.7 1.2 1.5 2.5 3.3 2.7 4 .4.9 2.9.1 9.4-3.1 15.5-7.8 19.4-8.4 25.4-3.9zM91.5 96.9c1.8.7 1.7.9-1.2 2.4-5 2.6-16.6 1.8-12.3-.8.9-.5 8-2 11-2.3.3 0 1.4.3 2.5.7zm113.5.5c0 3.2 3.8 16.6 7 24.5 2.5 6.3 4 11.8 4 14.4v4.3l-10.8 7.2c-9.3 6.2-11.3 7.2-13.7 6.6l-2.8-.7.7-7.1c1.7-19.3 1.8-25.1.3-29.8-1.4-4.4-1.4-4.8.5-6.5 1.1-1 3.2-3.8 4.6-6.2 1.5-2.5 3.8-4.9 5.6-5.7 3.3-1.4 4.6-1.7 4.6-1zm46.8 6.5c2.3 1.4.9 4.4-2.3 5.3-3.5.9-9.5-.7-9.5-2.6 0-2.3 2.4-3.6 6.5-3.6 2.2 0 4.6.4 5.3.9zm1.7 27.1c-.7 22.4-.9 23-6.8 23-6 0-6.7-1.1-6.7-11.5 0-9.4-.6-10.9-3-8-1.7 2-3.3 1.9-4.7-.3-.9-1.6-.6-2.2 2.7-4.2 4.4-2.7 5-4.1 5-13v-6.5h14.2l-.7 20.5zm-28.7 10.8c-.2.8-5.2 5.1-11.1 9.4-10.4 7.7-11 7.9-13.8 6.7-1.6-.6-2.8-1.6-2.7-2 .2-.5 5.6-4.5 12.1-8.8 8.1-5.3 12.5-7.7 13.8-7.4 1.1.3 1.9 1.2 1.7 2.1zm-56.9-.7c5.9 2.1 2.8 5.9-4.8 5.9-5 0-9.4-1.6-8.9-3.3 1.1-3.2 8-4.6 13.7-2.6zm-.8 7.2l3.9-1v68.5l-3.1 1.1c-4 1.4-6.8 1.4-10.8 0l-3.1-1.1v-68.5l4.6 1c3.2.8 5.7.8 8.5 0zm22.3 17.3c.9 2.2-.2 3.3-8.9 9.4l-7.5 5.1v-4.3c0-4 .3-4.5 4.7-7.3 4-2.5 6.8-3.7 10.4-4.4.4 0 1 .6 1.3 1.5z"/></svg>